<mxfile host="app.diagrams.net" modified="2022-08-17T10:38:54.181Z" agent="5.0 (Windows NT 10.0; Win64; x64) AppleWebKit/537.36 (KHTML, like Gecko) Chrome/104.0.0.0 Safari/537.36" etag="BVN6vq8kQffpc8pI4F9J" version="20.2.4" type="github">
  <diagram name="Page-1" id="edf60f1a-56cd-e834-aa8a-f176f3a09ee4">
    <mxGraphModel dx="830" dy="457" grid="1" gridSize="10" guides="1" tooltips="1" connect="1" arrows="1" fold="1" page="1" pageScale="1" pageWidth="1100" pageHeight="850" background="none" math="0" shadow="0">
      <root>
        <mxCell id="0" />
        <mxCell id="1" parent="0" />
        <mxCell id="60e70716793133e9-31" style="edgeStyle=orthogonalEdgeStyle;rounded=0;html=1;labelBackgroundColor=none;startSize=5;endArrow=classicThin;endFill=1;endSize=5;jettySize=auto;orthogonalLoop=1;strokeWidth=1;fontFamily=Verdana;fontSize=10;entryX=0.5;entryY=0;entryDx=0;entryDy=0;" parent="1" source="60e70716793133e9-2" target="jiypQ0l0SxHNG8Q_XDoi-15" edge="1">
          <mxGeometry relative="1" as="geometry">
            <mxPoint x="250" y="220" as="targetPoint" />
            <Array as="points">
              <mxPoint x="140" y="200" />
              <mxPoint x="250" y="200" />
            </Array>
          </mxGeometry>
        </mxCell>
        <mxCell id="60e70716793133e9-2" value="Right Click (desktop)" style="shape=trapezoid;whiteSpace=wrap;html=1;rounded=0;shadow=1;labelBackgroundColor=none;strokeWidth=1;fontFamily=Verdana;fontSize=10;align=center;flipV=1;fillColor=#dae8fc;strokeColor=#6c8ebf;" parent="1" vertex="1">
          <mxGeometry x="80" y="120" width="140" height="60" as="geometry" />
        </mxCell>
        <mxCell id="60e70716793133e9-32" style="edgeStyle=orthogonalEdgeStyle;rounded=0;html=1;labelBackgroundColor=none;startSize=5;endArrow=classicThin;endFill=1;endSize=5;jettySize=auto;orthogonalLoop=1;strokeWidth=1;fontFamily=Verdana;fontSize=10;entryX=0.5;entryY=0;entryDx=0;entryDy=0;" parent="1" source="60e70716793133e9-4" target="jiypQ0l0SxHNG8Q_XDoi-15" edge="1">
          <mxGeometry relative="1" as="geometry">
            <mxPoint x="250" y="220" as="targetPoint" />
            <Array as="points">
              <mxPoint x="380" y="200" />
              <mxPoint x="250" y="200" />
            </Array>
          </mxGeometry>
        </mxCell>
        <mxCell id="60e70716793133e9-4" value="Long Press (mobile)" style="rounded=0;whiteSpace=wrap;html=1;shadow=1;labelBackgroundColor=none;strokeWidth=1;fontFamily=Verdana;fontSize=10;align=center;fillColor=#dae8fc;strokeColor=#6c8ebf;" parent="1" vertex="1">
          <mxGeometry x="280" y="120" width="120" height="60" as="geometry" />
        </mxCell>
        <mxCell id="jiypQ0l0SxHNG8Q_XDoi-27" value="" style="edgeStyle=orthogonalEdgeStyle;rounded=0;orthogonalLoop=1;jettySize=auto;html=1;fontColor=#660000;fontSize=10;" edge="1" parent="1" source="60e70716793133e9-9" target="jiypQ0l0SxHNG8Q_XDoi-26">
          <mxGeometry relative="1" as="geometry" />
        </mxCell>
        <mxCell id="60e70716793133e9-9" value="&lt;font color=&quot;#660b0b&quot; style=&quot;font-size: 10px;&quot;&gt;EditCol&lt;/font&gt;" style="whiteSpace=wrap;html=1;rounded=0;shadow=1;labelBackgroundColor=none;strokeWidth=1;fontFamily=Verdana;fontSize=10;align=center;fillColor=#b0e3e6;strokeColor=#0e8088;" parent="1" vertex="1">
          <mxGeometry x="190" y="320" width="120" height="40" as="geometry" />
        </mxCell>
        <mxCell id="60e70716793133e9-57" style="edgeStyle=orthogonalEdgeStyle;rounded=0;html=1;labelBackgroundColor=none;startSize=5;endArrow=classicThin;endFill=1;endSize=5;jettySize=auto;orthogonalLoop=1;strokeWidth=1;fontFamily=Verdana;fontSize=8" parent="1" target="60e70716793133e9-30" edge="1">
          <mxGeometry relative="1" as="geometry">
            <mxPoint x="340" y="1240" as="sourcePoint" />
          </mxGeometry>
        </mxCell>
        <mxCell id="60e70716793133e9-30" value="End" style="strokeWidth=1;html=1;shape=mxgraph.flowchart.terminator;whiteSpace=wrap;rounded=0;shadow=1;labelBackgroundColor=none;fontFamily=Verdana;fontSize=8;align=center;fillColor=#e1d5e7;strokeColor=#9673a6;" parent="1" vertex="1">
          <mxGeometry x="310" y="1290" width="60" height="30" as="geometry" />
        </mxCell>
        <mxCell id="jiypQ0l0SxHNG8Q_XDoi-5" value="Context Menu 1" style="rounded=0;whiteSpace=wrap;html=1;fillColor=#fff2cc;strokeColor=#d6b656;" vertex="1" parent="1">
          <mxGeometry x="200" y="40" width="120" height="60" as="geometry" />
        </mxCell>
        <mxCell id="jiypQ0l0SxHNG8Q_XDoi-17" value="" style="edgeStyle=orthogonalEdgeStyle;rounded=0;orthogonalLoop=1;jettySize=auto;html=1;fontColor=#000000;fontSize=10;" edge="1" parent="1" source="jiypQ0l0SxHNG8Q_XDoi-15" target="60e70716793133e9-9">
          <mxGeometry relative="1" as="geometry" />
        </mxCell>
        <mxCell id="jiypQ0l0SxHNG8Q_XDoi-20" style="edgeStyle=orthogonalEdgeStyle;rounded=0;orthogonalLoop=1;jettySize=auto;html=1;exitX=1;exitY=0.5;exitDx=0;exitDy=0;entryX=0.5;entryY=0;entryDx=0;entryDy=0;fontColor=#000000;fontSize=10;" edge="1" parent="1" source="jiypQ0l0SxHNG8Q_XDoi-15" target="jiypQ0l0SxHNG8Q_XDoi-16">
          <mxGeometry relative="1" as="geometry" />
        </mxCell>
        <mxCell id="jiypQ0l0SxHNG8Q_XDoi-22" style="edgeStyle=orthogonalEdgeStyle;rounded=0;orthogonalLoop=1;jettySize=auto;html=1;fontColor=#000000;fontSize=10;" edge="1" parent="1" source="jiypQ0l0SxHNG8Q_XDoi-15" target="jiypQ0l0SxHNG8Q_XDoi-18">
          <mxGeometry relative="1" as="geometry" />
        </mxCell>
        <mxCell id="jiypQ0l0SxHNG8Q_XDoi-23" style="edgeStyle=orthogonalEdgeStyle;rounded=0;orthogonalLoop=1;jettySize=auto;html=1;entryX=0.5;entryY=0;entryDx=0;entryDy=0;fontColor=#000000;fontSize=10;" edge="1" parent="1" source="jiypQ0l0SxHNG8Q_XDoi-15" target="jiypQ0l0SxHNG8Q_XDoi-19">
          <mxGeometry relative="1" as="geometry" />
        </mxCell>
        <mxCell id="jiypQ0l0SxHNG8Q_XDoi-15" value="Pop-up 8 menu items" style="whiteSpace=wrap;html=1;rounded=0;shadow=1;labelBackgroundColor=none;strokeWidth=1;fontFamily=Verdana;fontSize=10;align=center;fillColor=#f5f5f5;strokeColor=#666666;fontColor=#333333;" vertex="1" parent="1">
          <mxGeometry x="190" y="230" width="120" height="40" as="geometry" />
        </mxCell>
        <mxCell id="jiypQ0l0SxHNG8Q_XDoi-16" value="&lt;font color=&quot;#660000&quot; style=&quot;font-size: 10px;&quot;&gt;AddCol&lt;/font&gt;" style="whiteSpace=wrap;html=1;rounded=0;shadow=1;labelBackgroundColor=none;strokeWidth=1;fontFamily=Verdana;fontSize=10;align=center;fillColor=#b0e3e6;strokeColor=#0e8088;" vertex="1" parent="1">
          <mxGeometry x="340" y="320" width="120" height="40" as="geometry" />
        </mxCell>
        <mxCell id="jiypQ0l0SxHNG8Q_XDoi-18" value="ViewCol" style="whiteSpace=wrap;html=1;rounded=0;shadow=1;labelBackgroundColor=none;strokeWidth=1;fontFamily=Verdana;fontSize=10;align=center;fillColor=#b0e3e6;strokeColor=#0e8088;" vertex="1" parent="1">
          <mxGeometry x="480" y="320" width="120" height="40" as="geometry" />
        </mxCell>
        <mxCell id="jiypQ0l0SxHNG8Q_XDoi-19" value="&lt;font color=&quot;#660000&quot; style=&quot;font-size: 10px;&quot;&gt;DelCol&lt;/font&gt;" style="whiteSpace=wrap;html=1;rounded=0;shadow=1;labelBackgroundColor=none;strokeWidth=1;fontFamily=Verdana;fontSize=10;align=center;fillColor=#b0e3e6;strokeColor=#0e8088;" vertex="1" parent="1">
          <mxGeometry x="620" y="320" width="120" height="40" as="geometry" />
        </mxCell>
        <mxCell id="jiypQ0l0SxHNG8Q_XDoi-31" value="" style="edgeStyle=orthogonalEdgeStyle;rounded=0;orthogonalLoop=1;jettySize=auto;html=1;fontColor=#660000;fontSize=10;" edge="1" parent="1" source="jiypQ0l0SxHNG8Q_XDoi-24" target="jiypQ0l0SxHNG8Q_XDoi-29">
          <mxGeometry relative="1" as="geometry">
            <Array as="points">
              <mxPoint x="170" y="500" />
              <mxPoint x="170" y="500" />
            </Array>
          </mxGeometry>
        </mxCell>
        <mxCell id="jiypQ0l0SxHNG8Q_XDoi-36" value="" style="edgeStyle=orthogonalEdgeStyle;rounded=0;orthogonalLoop=1;jettySize=auto;html=1;fontSize=10;fontColor=#000000;" edge="1" parent="1" source="jiypQ0l0SxHNG8Q_XDoi-24" target="jiypQ0l0SxHNG8Q_XDoi-35">
          <mxGeometry relative="1" as="geometry" />
        </mxCell>
        <mxCell id="jiypQ0l0SxHNG8Q_XDoi-24" value="Has another user&lt;br style=&quot;font-size: 10px;&quot;&gt;acquire ColLock?" style="rhombus;whiteSpace=wrap;html=1;rounded=0;shadow=1;labelBackgroundColor=none;strokeWidth=1;fontFamily=Verdana;fontSize=10;align=center;fillColor=#ffe6cc;strokeColor=#d79b00;" vertex="1" parent="1">
          <mxGeometry x="190" y="460" width="120" height="80" as="geometry" />
        </mxCell>
        <mxCell id="jiypQ0l0SxHNG8Q_XDoi-28" value="" style="edgeStyle=orthogonalEdgeStyle;rounded=0;orthogonalLoop=1;jettySize=auto;html=1;fontColor=#660000;fontSize=10;" edge="1" parent="1" source="jiypQ0l0SxHNG8Q_XDoi-26" target="jiypQ0l0SxHNG8Q_XDoi-24">
          <mxGeometry relative="1" as="geometry" />
        </mxCell>
        <mxCell id="jiypQ0l0SxHNG8Q_XDoi-26" value="Acquiring ColLock" style="whiteSpace=wrap;html=1;rounded=0;shadow=1;labelBackgroundColor=none;strokeWidth=1;fontFamily=Verdana;fontSize=10;align=center;spacing=6;fillColor=#dae8fc;strokeColor=#6c8ebf;" vertex="1" parent="1">
          <mxGeometry x="190" y="390" width="120" height="40" as="geometry" />
        </mxCell>
        <mxCell id="jiypQ0l0SxHNG8Q_XDoi-29" value="Pop-up Msg:&amp;nbsp;&lt;br style=&quot;font-size: 10px;&quot;&gt;&quot;Failed. userN. TabM occupies Row/ColLock" style="whiteSpace=wrap;html=1;rounded=0;shadow=1;labelBackgroundColor=none;strokeWidth=1;fontFamily=Verdana;fontSize=10;align=center;spacing=6;fillColor=#dae8fc;strokeColor=#6c8ebf;" vertex="1" parent="1">
          <mxGeometry x="10" y="475" width="130" height="50" as="geometry" />
        </mxCell>
        <mxCell id="jiypQ0l0SxHNG8Q_XDoi-34" value="Yes" style="text;strokeColor=none;fillColor=none;align=left;verticalAlign=middle;spacingLeft=4;spacingRight=4;overflow=hidden;points=[[0,0.5],[1,0.5]];portConstraint=eastwest;rotatable=0;fontColor=#000000;fontSize=10;" vertex="1" parent="1">
          <mxGeometry x="160" y="475" width="60" height="25" as="geometry" />
        </mxCell>
        <mxCell id="jiypQ0l0SxHNG8Q_XDoi-38" value="" style="edgeStyle=orthogonalEdgeStyle;rounded=0;orthogonalLoop=1;jettySize=auto;html=1;fontSize=10;fontColor=#000000;" edge="1" parent="1" source="jiypQ0l0SxHNG8Q_XDoi-35" target="jiypQ0l0SxHNG8Q_XDoi-37">
          <mxGeometry relative="1" as="geometry" />
        </mxCell>
        <mxCell id="jiypQ0l0SxHNG8Q_XDoi-35" value="Change ColLock state to&lt;div style=&quot;font-size: 10px;&quot;&gt;Acquired&lt;/div&gt;" style="whiteSpace=wrap;html=1;rounded=0;shadow=1;labelBackgroundColor=none;strokeWidth=1;fontFamily=Verdana;fontSize=10;align=center;fillColor=#d5e8d4;strokeColor=#82b366;" vertex="1" parent="1">
          <mxGeometry x="70" y="640" width="130" height="50" as="geometry" />
        </mxCell>
        <mxCell id="jiypQ0l0SxHNG8Q_XDoi-40" value="" style="edgeStyle=orthogonalEdgeStyle;rounded=0;orthogonalLoop=1;jettySize=auto;html=1;fontSize=10;fontColor=#000000;" edge="1" parent="1" source="jiypQ0l0SxHNG8Q_XDoi-37" target="jiypQ0l0SxHNG8Q_XDoi-39">
          <mxGeometry relative="1" as="geometry" />
        </mxCell>
        <mxCell id="jiypQ0l0SxHNG8Q_XDoi-37" value="Display 30 sec-timer inside dialog box" style="whiteSpace=wrap;html=1;rounded=0;shadow=1;labelBackgroundColor=none;strokeWidth=1;fontFamily=Verdana;fontSize=10;align=center;spacing=6;fillColor=#dae8fc;strokeColor=#6c8ebf;" vertex="1" parent="1">
          <mxGeometry x="70" y="730" width="130" height="50" as="geometry" />
        </mxCell>
        <mxCell id="jiypQ0l0SxHNG8Q_XDoi-39" value="Force &#39;CANCEL&#39; * release ColLock when timer is up" style="whiteSpace=wrap;html=1;rounded=0;shadow=1;labelBackgroundColor=none;strokeWidth=1;fontFamily=Verdana;fontSize=10;align=center;spacing=6;fillColor=#dae8fc;strokeColor=#6c8ebf;" vertex="1" parent="1">
          <mxGeometry x="70" y="810" width="130" height="50" as="geometry" />
        </mxCell>
        <mxCell id="jiypQ0l0SxHNG8Q_XDoi-41" value="No" style="text;strokeColor=none;fillColor=none;align=left;verticalAlign=middle;spacingLeft=4;spacingRight=4;overflow=hidden;points=[[0,0.5],[1,0.5]];portConstraint=eastwest;rotatable=0;fontColor=#000000;fontSize=10;" vertex="1" parent="1">
          <mxGeometry x="220" y="550" width="60" height="25" as="geometry" />
        </mxCell>
      </root>
    </mxGraphModel>
  </diagram>
</mxfile>
